<svg width="21" height="20" viewBox="0 0 21 20" fill="none" xmlns="http://www.w3.org/2000/svg">
<g clip-path="url(#clip0_401_430)">
<path d="M1.54297 10C1.54297 14.0937 4.16797 17.5625 7.79297 18.8437V1.15625C4.16797 2.4375 1.54297 5.90625 1.54297 10Z" fill="#428BC1"/>
<path d="M20.293 10C20.293 5.90625 17.6992 2.4375 14.043 1.15625V18.8437C17.6992 17.5625 20.293 14.0937 20.293 10" fill="#ED4C5C"/>
<path d="M7.79297 18.8438C8.76172 19.1875 9.82422 19.375 10.918 19.375C12.0117 19.375 13.0742 19.1875 14.043 18.8438V1.15625C13.0742 0.8125 12.043 0.625 10.918 0.625C9.79297 0.625 8.76172 0.8125 7.79297 1.15625V18.8438Z" fill="white"/>
</g>
<defs>
<clipPath id="clip0_401_430">
<rect width="20" height="20" fill="white" transform="translate(0.949219)"/>
</clipPath>
</defs>
</svg>
