<svg width="24" height="17" viewBox="0 0 24 17" fill="none" xmlns="http://www.w3.org/2000/svg">
<path d="M19.4824 7.05882C19.6235 6.63529 19.7647 6.21176 19.7647 5.64706C19.7647 2.54118 17.2235 0 14.1176 0C12 0 10.0235 1.27059 9.17647 3.10588C8.75294 2.96471 8.18824 2.82353 7.76471 2.82353C5.78824 2.82353 4.23529 4.37647 4.23529 6.35294C4.23529 6.63529 4.23529 6.91765 4.37647 7.05882C1.83529 7.48235 0 9.45882 0 12C0 14.6824 2.25882 16.9412 4.94118 16.9412H9.88235V12.7059H5.64706L12 6.35294L18.3529 12.7059H14.1176V16.9412H19.0588C21.7412 16.9412 24 14.6824 24 12C24 9.45882 22.0235 7.34118 19.4824 7.05882Z" fill="url(#paint0_linear_401_84)"/>
<defs>
<linearGradient id="paint0_linear_401_84" x1="12" y1="0" x2="19.7647" y2="21.8824" gradientUnits="userSpaceOnUse">
<stop stop-color="#E7E7E7"/>
<stop offset="1" stop-color="#848484" stop-opacity="0"/>
</linearGradient>
</defs>
</svg>
